<svg width="128" height="113" viewBox="0 0 128 113" fill="none" xmlns="http://www.w3.org/2000/svg">
<path d="M115.661 9.77283C122.898 20.5971 126.923 33.6848 126.435 47.6543C125.191 83.2647 95.101 111.117 59.2276 109.864C33.0943 108.952 11.1011 92.845 1.56485 70.3991L7.28574 67.3596C15.7456 87.8637 35.7006 102.628 59.4513 103.457C91.7597 104.585 118.858 79.5002 119.979 47.4289C120.426 34.6324 116.668 22.6573 109.939 12.8133L115.661 9.77283Z" fill="#68D585"/>
<path d="M86.9637 3.7054C101.942 12.5831 111.724 29.0424 111.079 47.5346C110.133 74.6006 87.21 95.7689 59.8779 94.8146C43.1623 94.2309 28.6697 85.507 20.1485 72.6275L24.7435 67.8865C32.0281 79.7739 45.0243 87.9131 60.1005 88.4396C83.8772 89.2697 103.819 70.855 104.641 47.3098C105.221 30.6967 96.1267 15.9688 82.3697 8.44445L86.9637 3.7054Z" fill="#161C2D"/>
</svg>
